<svg width="17" height="15" viewBox="0 0 17 15" fill="none" xmlns="http://www.w3.org/2000/svg">
<path d="M8.48917 15C7.80228 15 7.14353 14.7569 6.65783 14.3241C6.17212 13.8913 5.89926 13.3043 5.89926 12.6923C5.89926 12.5393 5.96747 12.3926 6.0889 12.2844C6.21032 12.1762 6.37501 12.1154 6.54674 12.1154H10.4316C10.6033 12.1154 10.768 12.1762 10.8894 12.2844C11.0109 12.3926 11.0791 12.5393 11.0791 12.6923C11.0791 13.3043 10.8062 13.8913 10.3205 14.3241C9.83481 14.7569 9.17606 15 8.48917 15ZM7.36903 13.2692C7.48287 13.4441 7.64626 13.5892 7.84284 13.6901C8.03943 13.791 8.26231 13.8441 8.48917 13.8441C8.71604 13.8441 8.93892 13.791 9.1355 13.6901C9.33209 13.5892 9.49548 13.4441 9.60931 13.2692H7.36903Z" fill="#C2C4C7"/>
<path d="M9.78413 2.30769H7.19421C7.02249 2.30769 6.8578 2.24691 6.73638 2.13872C6.61495 2.03052 6.54673 1.88378 6.54673 1.73077C6.54673 1.27174 6.75138 0.831513 7.11566 0.506931C7.47994 0.182348 7.974 0 8.48917 0C9.00434 0 9.4984 0.182348 9.86268 0.506931C10.227 0.831513 10.4316 1.27174 10.4316 1.73077C10.4316 1.88378 10.3634 2.03052 10.242 2.13872C10.1205 2.24691 9.95585 2.30769 9.78413 2.30769Z" fill="#C2C4C7"/>
<path d="M15.6114 13.2692H1.3669C1.19518 13.2692 1.03049 13.2084 0.909068 13.1002C0.787642 12.9921 0.719426 12.8453 0.719426 12.6923C0.718858 12.0408 0.89522 11.3988 1.23346 10.8211C1.5717 10.2435 2.06178 9.7473 2.66186 9.37499V6.34615C2.66183 4.97504 3.27044 3.65957 4.35488 2.68682C5.43933 1.71406 6.91156 1.16298 8.45032 1.15384H8.52154C10.067 1.15384 11.5492 1.70088 12.6421 2.67463C13.7349 3.64838 14.3489 4.96906 14.3489 6.34615V9.37499C14.943 9.75049 15.4267 10.248 15.7592 10.8255C16.0917 11.4029 16.2631 12.0433 16.2589 12.6923C16.2589 12.8453 16.1907 12.9921 16.0693 13.1002C15.9478 13.2084 15.7832 13.2692 15.6114 13.2692ZM2.07913 12.1154H14.8992C14.8075 11.7154 14.6216 11.3373 14.3537 11.0062C14.0858 10.675 13.7421 10.3982 13.3453 10.1942C13.2465 10.1434 13.1645 10.0702 13.1076 9.98206C13.0508 9.89392 13.0211 9.79396 13.0215 9.6923V6.34615C13.0215 5.27508 12.544 4.24788 11.694 3.49052C10.844 2.73317 9.69123 2.30769 8.48917 2.30769C7.28712 2.30769 6.1343 2.73317 5.28431 3.49052C4.43433 4.24788 3.95682 5.27508 3.95682 6.34615V9.6923C3.95727 9.79396 3.92757 9.89392 3.87072 9.98206C3.81387 10.0702 3.73189 10.1434 3.63308 10.1942C3.23624 10.3982 2.89253 10.675 2.62465 11.0062C2.35677 11.3373 2.17084 11.7154 2.07913 12.1154Z" fill="#C2C4C7"/>
</svg>
