<svg width="21" height="20" viewBox="0 0 21 20" fill="none" xmlns="http://www.w3.org/2000/svg">
<path d="M20.7733 8.03998C21.2038 5.93856 19.0097 4.80888 16.0095 4.05527L16.9827 1.20864L14.6059 0.776805L13.6584 3.54843C13.0344 3.43492 12.3928 3.32782 11.7553 3.22171L12.7095 0.431832L10.3347 0L9.36083 2.84565C8.84377 2.75978 8.33618 2.67489 7.84349 2.58556L7.8462 2.57668L4.56923 1.98001L3.93712 3.83072C3.93712 3.83072 5.70013 4.12535 5.66291 4.14361C6.62529 4.31882 6.7999 4.78322 6.77012 5.15139L5.66156 8.39432C5.72788 8.40666 5.81383 8.42443 5.90858 8.45207L5.65817 8.40666L4.10361 12.9495C3.98585 13.1627 3.68739 13.4825 3.01467 13.3611C3.03836 13.3863 1.28754 13.0468 1.28754 13.0468L0.10791 15.0307L3.20079 15.5928C3.77605 15.698 4.33981 15.808 4.89409 15.9117L3.91073 18.7914L6.28419 19.2232L7.25875 16.3746C7.90643 16.5029 8.53583 16.6213 9.1517 16.7329L8.1812 19.5682L10.5574 20L11.5407 17.1262C15.5926 17.6854 18.6401 17.4598 19.9213 14.7879C20.9547 12.6361 19.8705 11.3949 17.7387 10.5851C19.2912 10.323 20.4613 9.57829 20.7733 8.03998ZM15.3435 13.5916C14.6086 15.7434 9.64101 14.5806 8.0296 14.2885L9.33443 10.474C10.9452 10.7672 16.109 11.3476 15.3435 13.5916ZM16.0779 8.00888C15.4078 9.96619 11.2727 8.97175 9.93067 8.72795L11.1137 5.26835C12.4557 5.51215 16.7763 5.96718 16.0779 8.00888Z" fill="#0996CA"/>
</svg>
