<svg width="17" height="15" viewBox="0 0 17 15" fill="none" xmlns="http://www.w3.org/2000/svg">
<path d="M14.4358 1.56264e-06H2.54018C2.05729 1.56264e-06 1.59417 0.185198 1.25271 0.514851C0.911254 0.844503 0.719424 1.29161 0.719424 1.75781L0.719424 9.32457C0.719424 9.79077 0.911254 10.2379 1.25271 10.5675C1.59417 10.8972 2.05729 11.0824 2.54018 11.0824H5.366C5.39819 11.0824 5.42907 11.0947 5.45183 11.1167C5.4746 11.1387 5.48738 11.1685 5.48738 11.1996V14.1796C5.48737 14.3419 5.5372 14.5005 5.63056 14.6354C5.72393 14.7703 5.85663 14.8755 6.0119 14.9376C6.16717 14.9996 6.33802 15.0159 6.50285 14.9842C6.66769 14.9526 6.81909 14.8744 6.93792 14.7597L10.7105 11.1175C10.7219 11.1067 10.7353 11.0981 10.7501 11.0922C10.7649 11.0864 10.7807 11.0835 10.7967 11.0836H14.4382C14.9211 11.0836 15.3842 10.8984 15.7257 10.5687C16.0672 10.239 16.259 9.79194 16.259 9.32575V1.75781C16.259 1.52677 16.2118 1.298 16.1202 1.08458C16.0285 0.871162 15.8942 0.677279 15.7248 0.514021C15.5555 0.350763 15.3545 0.221333 15.1333 0.133133C14.9121 0.0449332 14.6751 -0.000306485 14.4358 1.56264e-06ZM15.5283 9.32457C15.5283 9.60429 15.4132 9.87256 15.2083 10.0703C15.0034 10.2681 14.7255 10.3793 14.4358 10.3793H10.7943C10.5698 10.3777 10.3538 10.4619 10.1934 10.6136L6.42447 14.2617C6.40749 14.2782 6.3858 14.2895 6.36216 14.294C6.33852 14.2986 6.314 14.2963 6.29174 14.2874C6.26947 14.2784 6.25046 14.2633 6.23713 14.2439C6.2238 14.2245 6.21676 14.2017 6.2169 14.1785V11.1996C6.2169 10.982 6.12738 10.7734 5.96803 10.6195C5.80869 10.4657 5.59257 10.3793 5.36721 10.3793H2.54018C2.25045 10.3793 1.97258 10.2681 1.7677 10.0703C1.56283 9.87256 1.44773 9.60429 1.44773 9.32457V1.75781C1.44773 1.47809 1.56283 1.20982 1.7677 1.01203C1.97258 0.814242 2.25045 0.703124 2.54018 0.703124H14.4358C14.7255 0.703124 15.0034 0.814242 15.2083 1.01203C15.4132 1.20982 15.5283 1.47809 15.5283 1.75781V9.32457Z" fill="#C2C4C7"/>
</svg>
