<svg width="17" height="15" viewBox="0 0 17 15" fill="none" xmlns="http://www.w3.org/2000/svg">
<path d="M6.76259 10.8333H7.6562C7.7295 11.222 8.0653 11.5218 8.48921 11.5218C8.92782 11.5218 9.27501 11.2019 9.3306 10.7933C10.3253 10.6079 11.0791 9.76364 11.0791 8.74999C11.0791 8.27911 10.9105 7.84922 10.6367 7.49999C10.9105 7.15077 11.0791 6.72088 11.0791 6.24999C11.0791 5.24363 10.3366 4.40231 9.35252 4.20878V4.16666C9.35252 3.70605 8.96639 3.33333 8.48921 3.33333C8.01203 3.33333 7.6259 3.70605 7.6259 4.16666H6.76259C6.28541 4.16666 5.89928 4.53939 5.89928 4.99999V7.49999V9.99999C5.89928 10.4606 6.28541 10.8333 6.76259 10.8333ZM8.92086 9.16666H7.6259V8.33333H8.92086C9.15861 8.33333 9.35252 8.5205 9.35252 8.74999C9.35252 8.97949 9.15861 9.16666 8.92086 9.16666ZM7.6259 5.83333H8.92086C9.15861 5.83333 9.35252 6.0205 9.35252 6.24999C9.35252 6.47949 9.15861 6.66666 8.92086 6.66666H7.6259V5.83333Z" fill="#C2C4C7"/>
<path d="M0.719424 7.5C0.719424 11.6357 4.2047 15 8.48921 15C12.7737 15 16.259 11.6357 16.259 7.5C16.259 3.36426 12.7737 0 8.48921 0C4.2047 0 0.719424 3.36426 0.719424 7.5ZM8.48921 1.66667C11.821 1.66667 14.5324 4.28385 14.5324 7.5C14.5324 10.7161 11.821 13.3333 8.48921 13.3333C5.15737 13.3333 2.44604 10.7161 2.44604 7.5C2.44604 4.28385 5.15737 1.66667 8.48921 1.66667Z" fill="#C2C4C7"/>
</svg>
