<svg width="17" height="15" viewBox="0 0 17 15" fill="none" xmlns="http://www.w3.org/2000/svg">
<path d="M1.67516 13.8516V1.68912H0.719424V13.8516V15H1.67516H16.259V13.8516H1.67516Z" fill="#0996CA"/>
<path d="M4.52085 7.39899C4.52085 6.96076 4.2224 6.60152 3.85693 6.60152H3.02734C2.66266 6.60152 2.36437 6.96076 2.36437 7.39899V13.099H4.52085V7.39899Z" fill="#0996CA"/>
<path d="M6.45903 5.00658C6.09435 5.00658 5.79558 5.36505 5.79558 5.80405V13.099H7.95143V5.80405C7.95143 5.36505 7.65362 5.00658 7.28814 5.00658H6.45903Z" fill="#0996CA"/>
<path d="M9.89009 6.60152C9.52525 6.60152 9.22616 6.96076 9.22616 7.39899V13.099H11.3827V7.39899C11.3827 6.96076 11.0848 6.60152 10.7197 6.60152H9.89009Z" fill="#0996CA"/>
<path d="M14.1506 3.41089H13.321C12.9561 3.41089 12.6574 3.77013 12.6574 4.20836V13.099H14.8142V4.20836C14.8142 3.77013 14.5157 3.41089 14.1506 3.41089Z" fill="#0996CA"/>
<path d="M3.78327 5.58379L6.95065 2.52608L9.86195 5.65063C9.92519 5.71823 10.0042 5.75164 10.0836 5.75164C10.1667 5.75164 10.2496 5.71443 10.3137 5.64L13.8395 1.55089L14.5486 2.40152H14.732V0H12.7323V0.220258L13.3703 0.986586L10.0744 4.80912L7.18334 1.70583C7.06194 1.57519 6.88094 1.56988 6.75385 1.69216L3.36753 4.96253C3.22431 5.10076 3.20138 5.35139 3.31615 5.52379C3.43155 5.69469 3.64037 5.72203 3.78327 5.58379Z" fill="#0996CA"/>
</svg>
