<svg width="24" height="20" viewBox="0 0 24 20" fill="none" xmlns="http://www.w3.org/2000/svg">
<path d="M9.7371 20C9.57298 20.0005 9.41201 19.9572 9.27251 19.875C9.14618 19.7999 9.04206 19.6955 8.96997 19.5716C8.89789 19.4476 8.86021 19.3083 8.86051 19.1667V11.15L2.09323 4.00833C1.36897 3.24169 0.969227 2.24711 0.971199 1.21667V0.833333C0.971199 0.61232 1.06355 0.400358 1.22795 0.244078C1.39234 0.0877975 1.6153 0 1.84779 0H22.886C23.1184 0 23.3414 0.0877975 23.5058 0.244078C23.6702 0.400358 23.7625 0.61232 23.7625 0.833333V1.21667C23.7645 2.24711 23.3648 3.24169 22.6405 4.00833L15.8732 11.15V15.6333C15.8742 16.0987 15.7385 16.5551 15.4814 16.9511C15.2243 17.3472 14.8561 17.6671 14.4181 17.875L10.1316 19.9083C10.0094 19.9678 9.87433 19.9992 9.7371 20ZM2.76821 1.66667C2.85508 2.12272 3.07359 2.54684 3.39935 2.89167L10.4121 10.275C10.5487 10.4315 10.6204 10.6301 10.6137 10.8333V17.8167L13.6379 16.3833C13.7838 16.3134 13.9063 16.2062 13.9915 16.0737C14.0767 15.9412 14.1212 15.7886 14.1201 15.6333V10.8333C14.1206 10.6268 14.2018 10.4278 14.348 10.275L21.3607 2.89167C21.6928 2.5488 21.9175 2.1245 22.0094 1.66667H2.76821Z" fill="white"/>
</svg>
