<svg width="17" height="15" viewBox="0 0 17 15" fill="none" xmlns="http://www.w3.org/2000/svg">
<path d="M8.48921 15C6.95249 15 5.45028 14.5601 4.17255 13.736C2.89482 12.9119 1.89894 11.7406 1.31087 10.3701C0.722791 8.99968 0.568923 7.49168 0.868722 6.03682C1.16852 4.58197 1.90852 3.2456 2.99514 2.1967C4.08177 1.14781 5.46621 0.433503 6.9734 0.144114C8.48059 -0.145275 10.0428 0.0032496 11.4626 0.570907C12.8823 1.13856 14.0958 2.09986 14.9495 3.33323C15.8033 4.56659 16.259 6.01664 16.259 7.5C16.2565 9.4884 15.4372 11.3947 13.9806 12.8007C12.524 14.2067 10.5491 14.9976 8.48921 15ZM8.48921 0.990887C7.15552 0.990887 5.85178 1.37264 4.74286 2.08787C3.63394 2.8031 2.76964 3.81969 2.25925 5.00907C1.74887 6.19846 1.61533 7.50722 1.87552 8.76987C2.13571 10.0325 2.77795 11.1923 3.72101 12.1026C4.66407 13.013 5.8656 13.6329 7.17367 13.884C8.48173 14.1352 9.83757 14.0063 11.0697 13.5136C12.3019 13.021 13.3551 12.1867 14.096 11.1163C14.837 10.0459 15.2325 8.78738 15.2325 7.5C15.2303 5.77432 14.5191 4.11992 13.255 2.89968C11.9909 1.67944 10.277 0.992985 8.48921 0.990887Z" fill="#C2C4C7"/>
<path d="M8.48921 15C6.48851 15 5.40963 11.1356 5.40963 7.5C5.40963 3.86445 6.48851 0 8.48921 0C10.4899 0 11.5688 3.86445 11.5688 7.5C11.5688 11.1356 10.4899 15 8.48921 15ZM8.48921 0.990884C7.65259 0.990884 6.43616 3.52656 6.43616 7.5C6.43616 9.31629 6.69279 11.0166 7.15473 12.2879C7.53762 13.3333 8.06012 14.0091 8.48921 14.0091C9.32583 14.0091 10.5423 11.4734 10.5423 7.5C10.5423 5.68371 10.2856 3.98335 9.8237 2.71205C9.4367 1.66667 8.91419 0.990884 8.48921 0.990884Z" fill="#C2C4C7"/>
<path d="M15.7457 7.99545H1.23269C1.09657 7.99545 0.966015 7.94325 0.869759 7.85033C0.773504 7.75742 0.719428 7.6314 0.719428 7.5C0.719428 7.3686 0.773504 7.24259 0.869759 7.14967C0.966015 7.05676 1.09657 7.00456 1.23269 7.00456H15.7457C15.8819 7.00456 16.0124 7.05676 16.1087 7.14967C16.2049 7.24259 16.259 7.3686 16.259 7.5C16.259 7.6314 16.2049 7.75742 16.1087 7.85033C16.0124 7.94325 15.8819 7.99545 15.7457 7.99545Z" fill="#C2C4C7"/>
<path d="M14.9615 4.82461H2.02209C1.88596 4.82461 1.75541 4.77241 1.65916 4.6795C1.5629 4.58658 1.50883 4.46057 1.50883 4.32917C1.50883 4.19777 1.5629 4.07175 1.65916 3.97884C1.75541 3.88592 1.88596 3.83372 2.02209 3.83372H14.9666C15.1027 3.83372 15.2333 3.88592 15.3295 3.97884C15.4258 4.07175 15.4799 4.19777 15.4799 4.32917C15.4799 4.46057 15.4258 4.58658 15.3295 4.6795C15.2333 4.77241 15.1027 4.82461 14.9666 4.82461H14.9615Z" fill="#C2C4C7"/>
<path d="M14.9615 11.1663H2.02209C1.88596 11.1663 1.75541 11.1141 1.65916 11.0212C1.5629 10.9282 1.50883 10.8022 1.50883 10.6708C1.50883 10.5394 1.5629 10.4134 1.65916 10.3205C1.75541 10.2276 1.88596 10.1754 2.02209 10.1754H14.9666C15.1027 10.1754 15.2333 10.2276 15.3295 10.3205C15.4258 10.4134 15.4799 10.5394 15.4799 10.6708C15.4799 10.8022 15.4258 10.9282 15.3295 11.0212C15.2333 11.1141 15.1027 11.1663 14.9666 11.1663H14.9615Z" fill="#C2C4C7"/>
</svg>
